<svg width="927" height="291" viewBox="0 0 927 291" fill="none" xmlns="http://www.w3.org/2000/svg">
<path d="M0 0H123.721C138.766 0 152.065 2.418 163.618 7.254C175.171 11.8213 184.708 18.2693 192.231 26.598C200.022 34.658 205.799 44.1957 209.56 55.211C213.59 65.9577 215.605 77.376 215.605 89.466C215.605 100.481 213.859 110.825 210.366 120.497C206.873 129.9 201.903 138.229 195.455 145.483C189.007 152.737 181.216 158.782 172.081 163.618C162.946 168.185 152.603 171.275 141.05 172.887V180.947C148.035 183.365 154.08 187.126 159.185 192.231C164.558 197.067 169.126 202.306 172.887 207.948L226.889 286.13H172.887L98.332 176.514H70.122C66.092 176.514 61.1217 176.245 55.211 175.708C49.3003 175.171 44.4643 174.096 40.703 172.484L36.27 180.141C40.5687 184.708 42.9867 189.544 43.524 194.649C44.0613 199.754 44.33 206.605 44.33 215.202V286.13H0V0ZM36.27 135.811L40.703 143.468C44.4643 141.856 49.3003 140.781 55.211 140.244C61.1217 139.707 66.092 139.438 70.122 139.438H118.079C135.005 139.438 147.901 135.005 156.767 126.139C165.902 117.004 170.469 104.78 170.469 89.466C170.469 74.152 165.902 62.1963 156.767 53.599C147.901 44.733 135.005 40.3 118.079 40.3H70.122C66.092 40.3 61.1217 40.0313 55.211 39.494C49.3003 38.9567 44.4643 37.882 40.703 36.27L36.27 43.927C38.4193 46.345 40.0313 49.3003 41.106 52.793C42.1807 56.017 42.9867 59.644 43.524 63.674C44.0613 67.704 44.33 72.0027 44.33 76.57C44.33 80.8687 44.33 85.1673 44.33 89.466C44.33 93.7647 44.33 98.1977 44.33 102.765C44.33 107.332 44.0613 111.765 43.524 116.064C42.9867 120.094 42.1807 123.855 41.106 127.348C40.0313 130.572 38.4193 133.393 36.27 135.811ZM246.249 97.526H293.803V145.08H246.249V97.526ZM293.803 238.576V286.13H246.249V238.576H293.803ZM318.096 189.813C318.096 176.111 320.245 163.081 324.544 150.722C329.111 138.095 335.559 127.079 343.888 117.676C352.485 108.004 362.963 100.347 375.322 94.705C387.681 89.063 401.786 86.242 417.637 86.242C434.294 86.242 448.668 89.1973 460.758 95.108C473.117 101.019 483.057 109.213 490.58 119.691C498.371 129.9 503.745 141.856 506.7 155.558C509.655 168.991 510.058 183.365 507.909 198.679H360.411C362.829 215.068 369.68 228.232 380.964 238.173C392.517 248.114 407.293 253.084 425.294 253.084C432.817 253.084 439.802 252.144 446.25 250.263C452.967 248.382 459.012 246.099 464.385 243.412C469.758 240.725 474.46 237.77 478.49 234.546C482.52 231.053 485.744 227.964 488.162 225.277L508.715 257.114C506.028 259.532 502.267 262.756 497.431 266.786C492.864 270.547 487.087 274.309 480.102 278.07C473.385 281.563 465.325 284.518 455.922 286.936C446.519 289.623 435.503 290.966 422.876 290.966C406.487 290.966 391.845 288.548 378.949 283.712C366.053 278.607 355.038 271.622 345.903 262.756C337.037 253.89 330.186 243.278 325.35 230.919C320.514 218.292 318.096 204.59 318.096 189.813ZM361.217 173.693L366.859 176.111C368.74 174.768 374.113 173.156 382.979 171.275C392.114 169.126 402.995 168.051 415.622 168.051C423.413 168.051 429.996 168.32 435.369 168.857C441.011 169.394 445.578 170.066 449.071 170.872C452.564 171.678 455.25 172.484 457.131 173.29C459.28 174.096 460.758 174.902 461.564 175.708L467.206 173.693C467.206 165.096 465.863 157.573 463.176 151.125C460.489 144.408 456.862 138.901 452.295 134.602C447.728 130.035 442.354 126.676 436.175 124.527C429.996 122.109 423.413 120.9 416.428 120.9C410.786 120.9 404.741 121.975 398.293 124.124C392.114 126.273 386.337 129.497 380.964 133.796C375.859 138.095 371.426 143.602 367.665 150.319C364.172 156.767 362.023 164.558 361.217 173.693ZM524.335 189.813C524.335 174.499 526.887 160.528 531.992 147.901C537.096 135.005 544.216 124.124 553.351 115.258C562.754 106.123 573.904 99.0037 586.8 93.899C599.964 88.7943 614.338 86.242 629.921 86.242C644.697 86.242 658.399 88.9287 671.027 94.302C683.923 99.407 694.132 106.526 701.655 115.661L674.251 145.886C669.415 139.438 662.698 134.199 654.101 130.169C645.772 126.139 636.637 124.124 626.696 124.124C608.159 124.124 593.516 129.766 582.769 141.05C572.023 152.334 566.65 167.379 566.65 186.186C566.65 196.127 568.127 205.261 571.083 213.59C574.307 221.65 578.74 228.635 584.382 234.546C590.024 240.457 596.74 245.024 604.532 248.248C612.323 251.472 620.92 253.084 630.324 253.084C643.22 253.084 655.041 250.8 665.788 246.233C676.534 241.397 684.863 235.083 690.774 227.292L707.7 260.338C698.834 269.741 687.281 277.264 673.042 282.906C658.802 288.279 644.16 290.966 629.115 290.966C612.995 290.966 598.487 288.682 585.59 284.115C572.695 279.279 561.679 272.562 552.545 263.965C543.679 255.099 536.693 244.487 531.588 232.128C526.753 219.501 524.335 205.396 524.335 189.813Z" fill="#3E7C17"/>
<path d="M749.258 261.745C739.88 252.284 732.621 241.43 727.47 229.186C722.325 216.942 719.749 204.419 719.749 191.617C719.749 179.187 722.232 166.757 727.193 154.327C732.159 141.897 739.88 130.394 750.362 119.819C759.185 110.914 770.036 103.818 782.903 98.53C795.774 93.2426 809.793 89.4393 824.963 87.1203C840.128 84.8012 856.124 83.688 872.946 83.7808C889.774 83.8735 906.639 84.7548 923.554 86.4245C925.026 101.638 925.901 117.5 926.178 134.012C926.45 150.523 925.488 166.618 923.282 182.295C921.076 197.972 917.441 212.628 912.388 226.264C907.329 239.9 900.206 251.357 891.012 260.633C881.086 270.836 870.137 278.443 858.167 283.452C846.203 288.461 833.983 290.966 821.513 290.966C808.277 290.966 795.497 288.693 783.18 284.148C770.862 279.603 759.555 272.135 749.258 261.745ZM788.146 247.553C793.661 250.707 799.219 252.887 804.832 254.093C810.439 255.299 815.992 255.902 821.486 255.902C829.391 255.902 837.21 254.232 844.942 250.893C852.674 247.553 859.938 242.451 866.741 235.587C872.077 230.206 876.396 223.11 879.705 214.298C883.014 205.485 885.59 195.791 887.426 185.216C889.268 174.642 890.415 163.603 890.877 152.1C891.333 140.598 891.29 129.559 890.735 118.984C882.645 118.242 873.18 118.01 862.329 118.288C851.484 118.567 840.633 119.587 829.788 121.349C818.943 123.112 808.69 125.802 799.04 129.42C789.385 133.038 781.615 137.815 775.736 143.752C768.379 151.173 763 158.872 759.598 166.85C756.197 174.827 754.496 182.239 754.496 189.085C754.496 198.936 756.246 207.711 759.74 215.411C763.233 223.11 766.542 228.537 769.667 231.691C776.1 218.333 785.25 205.346 797.106 192.73C808.967 180.115 824.365 168.89 843.301 159.058C830.799 170.746 819.812 183.918 810.347 198.574C800.876 213.231 793.476 229.557 788.146 247.553Z" fill="#3E7C17"/>
</svg>
